<svg xmlns="http://www.w3.org/2000/svg" width="512" height="512" viewBox="0 0 512 512" version="1.1"><path d="" stroke="none" fill="#080404" fill-rule="evenodd"/><path d="M 298.021 5.062 C 293.195 7.093, 291.535 9.938, 269.877 53.290 C 242.447 108.195, 241.412 97.679, 278.393 139.818 C 293.027 156.492, 305.032 170.217, 305.070 170.318 C 305.349 171.039, 321.714 285.550, 321.564 285.730 C 321.459 285.856, 311.121 260.206, 298.590 228.730 C 271.717 161.227, 278.979 171.545, 238.952 144 C 223.367 133.275, 210.285 124.269, 209.882 123.987 C 209.478 123.704, 212.958 106.379, 217.616 85.487 C 229.149 33.758, 228.421 27.615, 210.766 27.615 C 199.124 27.615, 198.222 29.660, 186.545 82.550 C 173.028 143.777, 169.580 133.750, 214.928 165.097 C 249.356 188.895, 249.356 188.895, 272.678 247.189 C 299.961 315.384, 297.445 305.183, 289.466 315.253 C 285.727 319.973, 280.702 328.076, 277.716 334.200 C 274.847 340.085, 272.050 344.923, 271.500 344.950 C 264.412 345.303, 156.117 306.480, 157.687 304.150 C 176.029 276.941, 164.252 240.262, 134.192 230.977 C 124.687 228.042, 66.458 227.979, 57.091 230.895 C 16.471 243.537, 12.258 300.048, 50.556 318.545 C 59.735 322.978, 67.009 323.956, 90.993 323.980 C 148.656 324.039, 316.983 397.932, 262 399.050 C 260.625 399.078, 232.950 401.260, 200.500 403.899 C 168.050 406.538, 141.437 408.653, 141.361 408.599 C 141.284 408.544, 141.700 405.899, 142.284 402.719 C 145.947 382.779, 132.692 360.590, 111.864 351.796 C 105.583 349.143, 48.406 347.736, 37.650 349.969 C -6.172 359.066, -13.821 419.773, 26.368 439.510 C 39.794 446.103, 25.718 446.469, 182 435.468 C 201.525 434.094, 227.400 432.304, 239.500 431.490 C 251.600 430.676, 263.863 429.751, 266.750 429.433 C 270.345 429.038, 272 429.215, 272 429.994 C 272 435.511, 286.371 458.836, 296.531 469.811 C 303.187 477, 303.187 477, 157.909 477 C 14.294 477, 12.585 477.023, 8.566 479.015 C -2.709 484.601, -3.031 500.696, 8.020 506.248 C 13.608 509.056, 498.738 508.955, 504.016 506.145 C 509.358 503.301, 512.927 497.496, 512.967 491.583 C 512.985 488.879, 512.712 486.955, 512.360 487.307 C 512.008 487.659, 510.948 486.507, 510.005 484.748 C 506.535 478.279, 501.948 477, 482.222 477 C 464.758 477, 464.758 477, 471.316 470.048 C 512.317 426.585, 514.509 357.731, 476.339 312.341 C 472 307.181, 472 307.181, 472 246.852 C 472 186.523, 472 186.523, 456.339 139.505 C 440.678 92.487, 440.678 92.487, 456.018 57.994 C 475.604 13.954, 475.856 6.316, 457.790 4.280 C 446.747 3.035, 446.812 2.946, 427.837 45.485 C 413.124 78.469, 413.124 78.469, 384.564 85.612 C 346.389 95.161, 345 95.932, 345 107.584 C 345 123.915, 352.477 125.470, 388 116.527 C 402.025 112.995, 413.781 110.420, 414.125 110.803 C 434.907 133.973, 452.773 288.309, 433.650 279.474 C 412.077 269.507, 379.784 266.080, 358.105 271.458 C 354.588 272.330, 351.554 272.887, 351.362 272.695 C 351.170 272.503, 347.625 248.410, 343.484 219.155 C 339.344 189.900, 335.441 163.730, 334.811 161 C 333.780 156.534, 331.093 153.104, 307.995 126.769 C 282.325 97.500, 282.325 97.500, 300.662 60.703 C 320.316 21.265, 320.854 19.709, 317.377 12.381 C 314.265 5.825, 304.754 2.228, 298.021 5.062 M 343 276.949 C 331.280 281.242, 323 285.750, 323 287.836 C 323 288.831, 325.475 306.904, 328.500 328 C 331.525 349.096, 334 366.466, 334 366.601 C 334 366.735, 320.621 362.380, 304.269 356.923 C 268.873 345.110, 272.764 345.415, 270.223 354.250 C 263.702 376.923, 260.133 373.313, 303.181 387.595 C 338.861 399.433, 338.861 399.433, 340.040 403.642 C 348.894 435.267, 392.948 445.279, 417.006 421.134 C 451.638 386.376, 414.837 328.163, 368.555 344.493 C 359.952 347.528, 361.659 352.070, 355.655 310.172 C 350.500 274.201, 350.500 274.201, 343 276.949 M 375.907 373.325 C 370.269 376.299, 367.039 381.746, 367.016 388.316 C 366.956 405.973, 390.245 412.364, 398.851 397.052 C 407.467 381.721, 391.430 365.136, 375.907 373.325" stroke="none" fill="#040404" fill-rule="evenodd"/></svg>