<svg xmlns="http://www.w3.org/2000/svg" width="512" height="512" viewBox="0 0 512 512" version="1.1"><path d="" stroke="none" fill-rule="evenodd" style="fill: rgb(64, 83, 27);"></path><path d="M 143 181.792 C 143 363.583, 143 363.583, 137.477 366.292 C 123.932 372.935, 113 389.370, 113 403.089 C 113 407, 113 407, 158.594 407 C 204.188 407, 204.188 407, 203.489 401.750 C 201.457 386.479, 192.357 373.089, 179.416 366.327 C 172.537 362.733, 170.451 238.887, 177.250 237.689 C 273.205 220.772, 345.151 222.548, 439.748 244.168 C 449.784 246.461, 458.269 248.064, 458.604 247.729 C 458.939 247.394, 443.439 219.516, 424.159 185.779 C 404.880 152.042, 388.854 123.777, 388.547 122.969 C 388.193 122.039, 400.614 105.724, 422.402 78.500 C 443.595 52.019, 456.371 35.258, 455.658 34.871 C 453.713 33.814, 406.589 25.225, 388 22.540 C 314.392 11.906, 236.742 12.580, 180.750 24.338 C 174 25.756, 174 25.756, 174 12.878 C 174 0, 174 0, 158.500 0 C 143 0, 143 0, 143 181.792 M 103.158 437.122 C 73.351 442.077, 53.859 465.887, 52.296 499.250 C 51.698 512, 51.698 512, 157.849 512 C 264 512, 264 512, 264 501.160 C 264 467.106, 243.784 442.227, 211.911 437.055 C 204.074 435.784, 110.864 435.841, 103.158 437.122" stroke="none" fill-rule="evenodd" style="fill: rgb(64, 83, 27);"></path></svg>