<svg xmlns="http://www.w3.org/2000/svg" width="512" height="512" viewBox="0 0 512 512" version="1.1"><path d="" stroke="none" fill="#080404" fill-rule="evenodd"/><path d="M 259 1.832 C 226.847 13.817, 218.238 51.966, 242.507 74.918 C 273.041 103.796, 323.104 75.916, 314.702 34.714 C 309.588 9.638, 281.904 -6.705, 259 1.832 M 152.123 34.963 C 148.133 35.951, 144.414 38.565, 141.562 42.385 C 138.589 46.367, 138.289 240.590, 141.241 250.122 C 145.750 264.687, 159.071 276.892, 173.937 280.080 C 178.969 281.159, 178.969 281.159, 177.521 283.960 C 176.724 285.500, 170.221 308.977, 163.070 336.130 C 147.687 394.533, 153.695 382.016, 118.124 429.784 C 85.914 473.040, 85.054 474.450, 85.022 484.054 C 84.942 508.009, 114.480 520.133, 130.873 502.873 C 136.701 496.735, 197.189 414.828, 198.998 410.624 C 199.974 408.356, 204.714 391.549, 209.532 373.275 C 218.293 340.050, 218.293 340.050, 221.896 343.208 C 258.718 375.477, 267.169 384.420, 266.586 390.500 C 262.899 428.972, 260.006 486.508, 261.499 491.645 C 268.392 515.355, 300.727 517.579, 311.981 495.116 C 314.085 490.917, 321.919 395.588, 321.983 373.410 C 322.016 361.773, 319.731 358.796, 289.531 331.141 C 274.939 317.779, 263 306.379, 263 305.810 C 263 304.597, 276.802 214.827, 277.621 210.709 C 278.134 208.132, 278.943 209.009, 288.223 222.209 C 306.815 248.655, 300.928 246.426, 353.136 246.791 C 400.951 247.125, 395.555 227.127, 396.427 407.222 C 396.916 508.314, 396.886 507.626, 400.913 510.718 C 403.815 512.946, 409.826 512.265, 412.710 509.381 C 415.329 506.762, 415.329 506.762, 414.680 375.381 C 414.270 292.592, 414.381 244, 414.980 244 C 422.781 244, 429.617 225.201, 425.447 215.218 C 419.986 202.145, 417.802 201.589, 369.573 201 C 327.196 200.482, 288.863 168.836, 286.718 132.600 C 284.663 97.876, 247.405 78.584, 218.869 97.468 C 215 100.028, 215 100.028, 215 74.079 C 215 43.369, 214.427 41.079, 205.500 36.155 C 202.134 34.298, 158.722 33.329, 152.123 34.963" stroke="none" fill="#040404" fill-rule="evenodd"/></svg>