<svg xmlns="http://www.w3.org/2000/svg" width="512" height="512" viewBox="0 0 512 512" version="1.1"><path d="" stroke="none" fill-rule="evenodd" style="fill: rgb(64, 83, 27);"></path><path d="M 150 181.531 C 150 353.557, 149.908 363.089, 148.250 363.573 C 125.122 370.319, 105.156 396.147, 105.017 419.500 C 105 422.360, 104.613 422.632, 96.750 425.317 C 64.061 436.478, 45 464.387, 45 501.088 C 45 512, 45 512, 166.154 512 C 287.308 512, 287.308 512, 286.702 498.750 C 285.017 461.916, 264.004 433.238, 232.226 424.403 C 226 422.672, 226 422.672, 225.985 418.086 C 225.915 396.422, 208.514 372.764, 186.835 364.860 C 172.785 359.737, 178.820 238.680, 193.250 236.175 C 279.861 221.141, 354.413 223.218, 442.780 243.127 C 455.033 245.888, 465.495 248.001, 466.027 247.823 C 466.560 247.646, 451.413 220.275, 432.367 187 C 413.321 153.725, 397.279 125.342, 396.716 123.926 C 395.759 121.516, 397.880 118.621, 429.928 78.590 C 448.757 55.071, 463.882 35.549, 463.541 35.208 C 462.732 34.399, 439.699 29.850, 414.481 25.519 C 336.970 12.208, 257.642 11.431, 193.250 23.352 C 181 25.619, 181 25.619, 181 12.810 C 181 0, 181 0, 165.500 0 C 150 0, 150 0, 150 181.531 M 253.500 46.692 C 236.099 47.844, 205.749 52.061, 188.750 55.687 C 181 57.341, 181 57.341, 181 132.189 C 181 207.038, 181 207.038, 183.250 206.558 C 243.290 193.758, 327.583 192.172, 395.376 202.567 C 400.808 203.400, 405.428 203.905, 405.643 203.690 C 405.859 203.474, 395.206 184.352, 381.970 161.196 C 357.905 119.094, 357.905 119.094, 382.933 87.826 C 399.469 67.165, 407.542 56.329, 406.730 55.886 C 403.686 54.225, 360.135 48.954, 333.500 47.023 C 320.834 46.105, 265.802 45.877, 253.500 46.692 M 158 392.875 C 146.501 396.661, 138.151 405.951, 136.399 416.908 C 135.744 421, 135.744 421, 165.372 421 C 195 421, 195 421, 194.990 417.750 C 194.944 402.496, 173.197 387.872, 158 392.875 M 110.459 453.395 C 97.335 456.583, 79.111 472.145, 79.009 480.250 C 79.004 480.663, 118.178 481, 166.062 481 C 253.125 481, 253.125 481, 250.312 475.791 C 244.312 464.676, 231.495 455.316, 219.114 453.005 C 211.046 451.500, 116.870 451.837, 110.459 453.395" stroke="none" fill-rule="evenodd" style="fill: rgb(64, 83, 27);"></path></svg>