<!--?xml version="1.0" encoding="utf-8"?-->

<!-- Uploaded to: SVG Repo, www.svgrepo.com, Generator: SVG Repo Mixer Tools -->
<svg width="800px" height="800px" viewBox="0 0 24 24" fill="none" xmlns="http://www.w3.org/2000/svg">
<g id="style=linear" clip-path="url(#clip0_1_184)">
<g id="home-smile">
<path id="vector" d="M19 23H5C3.34315 23 2 21.6569 2 20V11.563C2 10.4094 2.49808 9.31192 3.36639 8.55236L10.0248 2.72784C11.1558 1.7385 12.8442 1.73851 13.9752 2.72784L20.6336 8.55236C21.5019 9.31192 22 10.4094 22 11.563V20C22 21.6569 20.6569 23 19 23Z" stroke-width="1.5" stroke-linecap="round" style="stroke: rgb(64, 83, 27);"></path>
<path id="vector_2" d="M7.48433 15.1468C7.89041 16.001 8.53042 16.7224 9.33006 17.2275C10.1297 17.7325 11.0562 18.0004 12.002 18C12.9477 17.9996 13.874 17.731 14.6732 17.2254C15.4725 16.7197 16.1119 15.9977 16.5173 15.1433" stroke-width="1.5" stroke-linecap="round" stroke-linejoin="round" style="stroke: rgb(64, 83, 27);"></path>
</g>
</g>
<defs>
<clipPath id="clip0_1_184">
<rect width="24" height="24" transform="translate(0 24) rotate(-90)" style="fill: rgb(255, 255, 255);"></rect>
</clipPath>
</defs>
</svg>