<svg xmlns="http://www.w3.org/2000/svg" width="512" height="512" viewBox="0 0 512 512" version="1.1"><path d="" stroke="none" fill="#080404" fill-rule="evenodd"/><path d="M 420.267 54.157 C 412.564 55.491, 409.410 57.896, 361.275 99.135 C 301.099 150.692, 310.535 137.762, 287.880 199.696 C 277.458 228.188, 267.484 255.278, 265.715 259.896 C 262.500 268.292, 262.500 268.292, 188 308.714 C 121.036 345.047, 107.213 352.810, 113.348 350.641 C 131.644 344.172, 157.157 348.951, 178.333 362.813 C 191.637 371.522, 197.783 371.372, 212.521 361.975 C 241.948 343.212, 270.450 343.233, 299.479 362.038 C 315.300 372.287, 318.953 372.028, 339.887 359.176 C 344.500 356.344, 351.475 353.027, 355.387 351.805 C 359.299 350.583, 362.671 349.468, 362.881 349.328 C 363.090 349.187, 353.996 331.952, 342.672 311.028 C 312.933 256.079, 331.993 199.869, 400.184 141.417 C 447.884 100.530, 450.319 98.149, 452.655 90.113 C 458.517 69.951, 441.047 50.557, 420.267 54.157 M 396.973 206.058 C 350.294 212.935, 331.602 269.561, 364.939 303.102 C 400.535 338.916, 462 313.205, 462 262.500 C 462 227.845, 431.106 201.030, 396.973 206.058 M 6.388 363.914 C -5.643 369.153, -0.993 383.436, 13.265 385.035 C 22.100 386.026, 27.254 388.061, 36.033 394.022 C 60.142 410.395, 83.467 410.120, 109.377 393.159 C 126.728 381.800, 139.884 381.954, 158.264 393.730 C 184.259 410.386, 205.489 410.405, 231.146 393.797 C 250.412 381.325, 263.148 381.741, 283.685 395.515 C 305.247 409.976, 329.541 409.469, 353.323 394.063 C 371.955 381.993, 385.097 381.703, 402.373 392.980 C 429.490 410.683, 450.273 410.670, 478 392.933 C 487.392 386.925, 489.699 386.055, 499 385.012 C 508.253 383.975, 513 379.788, 513 372.667 C 513 370.467, 512.736 368.930, 512.414 369.253 C 512.092 369.575, 510.551 368.413, 508.991 366.669 C 503.169 360.165, 483.421 363.312, 468.407 373.137 C 446.339 387.579, 435.370 387.853, 414.032 374.498 C 388.866 358.747, 367.697 358.974, 342.264 375.270 C 323.882 387.048, 310.722 387.201, 293.377 375.838 C 266.774 358.411, 245.226 358.411, 218.623 375.838 C 201.278 387.201, 188.118 387.048, 169.736 375.270 C 143.306 358.336, 122.126 358.555, 95.345 376.038 C 77.429 387.734, 64.825 387.031, 43.623 373.157 C 32.065 365.593, 13.255 360.924, 6.388 363.914 M 3.041 418.806 C -5.165 427.011, 0.301 436.200, 14.454 437.994 C 22.511 439.016, 28.585 441.622, 38.370 448.257 C 59.987 462.915, 85.381 461.998, 109.447 445.688 C 124.020 435.812, 139.541 435.034, 153.291 443.489 C 156.431 445.420, 161.588 448.591, 164.750 450.535 C 184.351 462.588, 207.591 461.163, 231.102 446.468 C 243.623 438.641, 246.837 437.670, 258.520 438.179 C 268.322 438.606, 267.668 438.341, 284.941 448.885 C 307.149 462.441, 331.144 461.777, 353 447 C 370.571 435.120, 385.409 434.559, 401.647 445.159 C 428.859 462.924, 450.768 463.300, 476.623 446.448 C 486.216 440.196, 491.469 438.003, 496.876 437.994 C 506.852 437.979, 513 433.020, 513 424.989 C 513 422.612, 512.755 420.912, 512.455 421.212 C 512.155 421.511, 510.562 420.408, 508.915 418.761 C 502.632 412.479, 483.456 416.013, 466.908 426.504 C 445.609 440.006, 433.429 440.175, 414.332 427.233 C 391.435 411.717, 367.405 411.677, 343.448 427.115 C 324.623 439.247, 311.093 439.769, 294.595 428.998 C 266.853 410.888, 245.147 410.888, 217.405 428.998 C 200.900 439.773, 187.359 439.248, 168.552 427.104 C 145.186 412.017, 121.751 411.876, 98.451 426.681 C 77.306 440.117, 66.509 440.081, 45.092 426.504 C 28.484 415.976, 9.370 412.476, 3.041 418.806" stroke="none" fill="#040404" fill-rule="evenodd"/></svg>