<svg xmlns="http://www.w3.org/2000/svg" width="60" height="60" viewBox="0 0 60 60" version="1.1"><path d="" stroke="none" fill="#080404" fill-rule="evenodd"/><path d="M 34.557 2.223 C 32.365 5.351, 32.615 10.282, 35.461 20.051 C 37.037 25.464, 37.541 28.631, 36.864 28.866 C 34.462 29.696, 28.940 35.391, 28.383 37.611 C 27.887 39.585, 27.151 39.998, 24.142 39.989 C 16.825 39.967, 13.269 38.886, 12.104 36.330 C 11.139 34.210, 10.426 33.926, 6.745 34.193 C 3.150 34.453, 2.449 34.862, 2.165 36.865 C 1.981 38.166, 2.206 39.604, 2.665 40.060 C 3.710 41.099, 43.758 45.575, 44.587 44.746 C 44.921 44.412, 43.126 36.641, 40.597 27.476 C 36.025 10.903, 35.091 4.680, 37 3.500 C 38.268 2.716, 38.312 0, 37.057 0 C 36.538 0, 35.413 1, 34.557 2.223 M 47.750 11.626 C 42.819 15.328, 41.570 17.607, 44.959 16.721 C 46.604 16.291, 47.168 17.066, 48.472 21.553 C 49.327 24.493, 50.439 27.153, 50.944 27.465 C 52.704 28.553, 52.897 26.307, 51.454 21.512 C 49.461 14.890, 49.608 13.548, 52.500 12 C 55.100 10.609, 55.928 7.977, 53.750 8.030 C 53.063 8.047, 50.362 9.665, 47.750 11.626 M 43.485 28.024 C 42.021 30.393, 44.065 35.493, 47.288 37.514 C 49.935 39.173, 50.553 40.253, 50.802 43.650 C 51.056 47.125, 50.681 48.105, 48.417 49.887 C 44.651 52.849, 41.325 52.560, 37.981 48.979 C 35.924 46.778, 34.121 45.896, 31.329 45.729 C 27.789 45.517, 27.520 45.689, 27.766 48 C 28.111 51.239, 30.844 54.929, 34.990 57.750 C 38.907 60.416, 46.565 60.793, 50.931 58.536 C 60.078 53.805, 62.763 41.626, 56.341 33.994 C 52.538 29.474, 44.807 25.884, 43.485 28.024 M 37.494 39.006 C 36.496 40.110, 35.981 41.314, 36.350 41.683 C 37.013 42.346, 39.907 39.201, 39.968 37.750 C 40.019 36.562, 39.441 36.855, 37.494 39.006 M 45.914 38.595 C 45.866 39.093, 45.754 41.075, 45.664 43 C 45.516 46.157, 45.206 46.511, 42.500 46.615 C 37.865 46.793, 37.670 46.898, 39 48.500 C 40.736 50.591, 46.333 50.395, 48.345 48.171 C 50.589 45.692, 50.430 41.699, 48 39.500 C 46.900 38.505, 45.961 38.097, 45.914 38.595 M 12 51.374 C 1.650 52.612, -0 53.229, -0 55.859 C 0 59.521, 1.971 60, 17.033 60 C 25.082 60, 31.956 59.710, 32.311 59.356 C 32.665 59.002, 31.615 57.186, 29.977 55.321 C 28.340 53.456, 27 51.496, 27 50.965 C 27 49.809, 24.517 49.877, 12 51.374" stroke="none" fill="#040404" fill-rule="evenodd"/></svg>